
<svg width="123" height="29" viewBox="0 0 123 29" fill="none" xmlns="http://www.w3.org/2000/svg">
<path d="M4.22373 0.180638C6.72133 0.0495912 9.23936 0.0126446 11.7489 0.00225204C12.4978 -0.000848966 12.8722 -0.00239947 13.1062 0.230536C13.3402 0.463471 13.3402 0.838713 13.3402 1.5892V27.4108C13.3402 28.1613 13.3402 28.5365 13.1062 28.7695C12.8722 29.0024 12.4978 29.0008 11.7489 28.9977C9.23936 28.9874 6.72133 28.9504 4.22373 28.8194C1.39796 28.6711 0.330702 27.6008 0.182514 24.7791C0.00328935 21.3663 0 17.9153 0 14.4999C0 11.0846 0.00330533 7.6337 0.182509 4.22095C0.328629 1.43821 1.43986 0.326705 4.22373 0.180638Z" fill="currentColor"/>
<path d="M24.7898 28.8194C22.1079 28.9601 19.4024 28.9923 16.7092 28.9996C15.9604 29.0017 15.586 29.0027 15.3524 28.7698C15.1188 28.537 15.1188 28.162 15.1188 27.412V20.1568C15.1188 17.9093 15.1188 16.7855 15.8173 16.0873C16.5158 15.3891 17.64 15.3891 19.8884 15.3891H24.2442C26.5073 15.3891 27.6388 15.3891 28.3395 16.101C29.0403 16.8129 29.0222 17.9278 28.9861 20.1576C28.9616 21.669 28.9162 23.1811 28.8323 24.7791C28.6828 27.627 27.6332 28.6701 24.7898 28.8194Z" fill="currentColor"/>
<path d="M28.9798 8.83867C29.0163 11.0709 29.0345 12.187 28.3337 12.8991C27.6329 13.6111 26.5019 13.6111 24.2399 13.6111L19.8884 13.6111C17.64 13.6111 16.5158 13.6111 15.8173 12.9129C15.1188 12.2146 15.1188 11.0909 15.1188 8.84338V1.58797C15.1188 0.838011 15.1188 0.463031 15.3524 0.230163C15.586 -0.00270558 15.9604 -0.00168483 16.7092 0.000356667C19.4024 0.00770001 22.1079 0.0399112 24.7898 0.180645C27.6128 0.328779 28.684 1.39621 28.8323 4.22095C28.9096 5.69173 28.9541 7.26388 28.9798 8.83867Z" fill="currentColor"/>
<path d="M54 23.384C52.448 23.384 51.064 23.032 49.848 22.328C48.648 21.624 47.704 20.608 47.016 19.28C46.344 17.952 46.008 16.36 46.008 14.504C46.008 12.696 46.336 11.128 46.992 9.8C47.648 8.456 48.584 7.416 49.8 6.68C51.016 5.944 52.44 5.576 54.072 5.576C56.296 5.576 58.024 6.128 59.256 7.232C60.504 8.32 61.304 9.88 61.656 11.912L57.864 12.056C57.672 10.984 57.256 10.152 56.616 9.56C55.976 8.952 55.128 8.648 54.072 8.648C53.16 8.648 52.384 8.888 51.744 9.368C51.104 9.848 50.616 10.528 50.28 11.408C49.944 12.288 49.776 13.32 49.776 14.504C49.776 15.704 49.944 16.744 50.28 17.624C50.632 18.488 51.128 19.152 51.768 19.616C52.408 20.08 53.168 20.312 54.048 20.312C55.2 20.312 56.088 19.992 56.712 19.352C57.352 18.696 57.752 17.792 57.912 16.64L61.728 16.784C61.504 18.176 61.064 19.36 60.408 20.336C59.752 21.312 58.888 22.064 57.816 22.592C56.76 23.12 55.488 23.384 54 23.384ZM67.2878 23C66.2318 23 65.4078 22.736 64.8158 22.208C64.2238 21.68 63.9277 20.824 63.9277 19.64V5.96H67.5278V19.256C67.5278 19.64 67.6158 19.912 67.7918 20.072C67.9678 20.232 68.2238 20.312 68.5598 20.312H69.4238V23H67.2878ZM75.4877 23.288C74.1597 23.288 73.1197 22.864 72.3677 22.016C71.6317 21.152 71.2637 19.952 71.2637 18.416V10.136H74.8637V17.576C74.8637 18.568 75.0157 19.296 75.3197 19.76C75.6237 20.208 76.1037 20.432 76.7597 20.432C77.4957 20.432 78.0637 20.184 78.4637 19.688C78.8797 19.176 79.0877 18.416 79.0877 17.408V10.136H82.6877V23H79.3997L79.3037 19.304L79.7597 19.4C79.5677 20.68 79.1117 21.648 78.3917 22.304C77.6717 22.96 76.7037 23.288 75.4877 23.288ZM90.6542 23C89.3262 23 88.3502 22.696 87.7262 22.088C87.1022 21.464 86.7902 20.48 86.7902 19.136V7.112H90.3902V18.704C90.3902 19.328 90.5182 19.752 90.7742 19.976C91.0462 20.2 91.4462 20.312 91.9742 20.312H93.7742V23H90.6542ZM84.7262 12.824V10.136H93.7742V12.824H84.7262ZM101.518 23.288C100.206 23.288 99.0616 23.016 98.0856 22.472C97.1096 21.912 96.3496 21.128 95.8056 20.12C95.2616 19.112 94.9896 17.928 94.9896 16.568C94.9896 15.208 95.2616 14.032 95.8056 13.04C96.3496 12.032 97.1096 11.248 98.0856 10.688C99.0616 10.128 100.206 9.848 101.518 9.848C102.654 9.848 103.67 10.048 104.566 10.448C105.478 10.848 106.214 11.424 106.774 12.176C107.334 12.928 107.678 13.832 107.806 14.888L104.086 15.056C103.974 14.256 103.686 13.656 103.222 13.256C102.774 12.84 102.206 12.632 101.518 12.632C100.622 12.632 99.9256 12.976 99.4296 13.664C98.9336 14.352 98.6856 15.32 98.6856 16.568C98.6856 17.816 98.9336 18.792 99.4296 19.496C99.9256 20.184 100.622 20.528 101.518 20.528C102.206 20.528 102.782 20.32 103.246 19.904C103.71 19.472 103.99 18.824 104.086 17.96L107.806 18.104C107.694 19.16 107.358 20.08 106.798 20.864C106.254 21.632 105.526 22.232 104.614 22.664C103.718 23.08 102.686 23.288 101.518 23.288ZM109.795 23V5.96H113.395V13.136H112.915C113.043 12.384 113.291 11.768 113.659 11.288C114.043 10.808 114.515 10.448 115.075 10.208C115.651 9.968 116.275 9.848 116.947 9.848C117.907 9.848 118.707 10.056 119.347 10.472C119.987 10.888 120.467 11.464 120.787 12.2C121.123 12.936 121.291 13.776 121.291 14.72V23H117.691V15.584C117.691 14.624 117.539 13.904 117.235 13.424C116.947 12.944 116.451 12.704 115.747 12.704C115.011 12.704 114.435 12.952 114.019 13.448C113.603 13.944 113.395 14.688 113.395 15.68V23H109.795Z" fill="currentColor"/>
</svg>
