<svg width="29" height="29" viewBox="0 0 29 29" fill="none" xmlns="http://www.w3.org/2000/svg">
  <path
    d="M4.22373 0.180638C6.72133 0.0495912 9.23936 0.0126446 11.7489 0.00225204C12.4978 -0.000848966 12.8722 -0.00239947 13.1062 0.230536C13.3402 0.463471 13.3402 0.838713 13.3402 1.5892V27.4108C13.3402 28.1613 13.3402 28.5365 13.1062 28.7695C12.8722 29.0024 12.4978 29.0008 11.7489 28.9977C9.23936 28.9874 6.72133 28.9504 4.22373 28.8194C1.39796 28.6711 0.330702 27.6008 0.182514 24.7791C0.00328935 21.3663 0 17.9153 0 14.4999C0 11.0846 0.00330533 7.6337 0.182509 4.22095C0.328629 1.43821 1.43986 0.326705 4.22373 0.180638Z"
    fill="#B0B0B0" />
  <path
    d="M24.7898 28.8194C22.1079 28.9601 19.4024 28.9923 16.7092 28.9996C15.9604 29.0017 15.586 29.0027 15.3524 28.7698C15.1188 28.537 15.1188 28.162 15.1188 27.412V20.1568C15.1188 17.9093 15.1188 16.7855 15.8173 16.0873C16.5158 15.3891 17.64 15.3891 19.8884 15.3891H24.2442C26.5073 15.3891 27.6388 15.3891 28.3395 16.101C29.0403 16.8129 29.0222 17.9278 28.9861 20.1576C28.9616 21.669 28.9162 23.1811 28.8323 24.7791C28.6828 27.627 27.6332 28.6701 24.7898 28.8194Z"
    fill="#8C8C8C" />
  <path
    d="M28.9798 8.83867C29.0163 11.0709 29.0345 12.187 28.3337 12.8991C27.6329 13.6111 26.5019 13.6111 24.2399 13.6111L19.8884 13.6111C17.64 13.6111 16.5158 13.6111 15.8173 12.9129C15.1188 12.2146 15.1188 11.0909 15.1188 8.84338V1.58797C15.1188 0.838011 15.1188 0.463031 15.3524 0.230163C15.586 -0.00270558 15.9604 -0.00168483 16.7092 0.000356667C19.4024 0.00770001 22.1079 0.0399112 24.7898 0.180645C27.6128 0.328779 28.684 1.39621 28.8323 4.22095C28.9096 5.69173 28.9541 7.26388 28.9798 8.83867Z"
    fill="#6E6E6E" />
</svg>